<svg xmlns="http://www.w3.org/2000/svg" xmlns:xlink="http://www.w3.org/1999/xlink" width="540.57" height="514.628" viewBox="0 0 540.57 514.628">
  <defs>
    <linearGradient id="linear-gradient" x1="0.509" y1="0.997" x2="0.509" y2="-0.003" gradientUnits="objectBoundingBox">
      <stop offset="0" stop-color="gray" stop-opacity="0.251"/>
      <stop offset="0.54" stop-color="gray" stop-opacity="0.122"/>
      <stop offset="1" stop-color="gray" stop-opacity="0.102"/>
    </linearGradient>
    <linearGradient id="linear-gradient-2" x1="0.813" y1="0.841" x2="0.813" y2="-0.159" xlink:href="#linear-gradient"/>
    <linearGradient id="linear-gradient-3" x1="1.78" y1="0.849" x2="1.78" y2="-0.151" xlink:href="#linear-gradient"/>
    <linearGradient id="linear-gradient-4" x1="0.5" y1="1" x2="0.5" y2="0" xlink:href="#linear-gradient"/>
    <linearGradient id="linear-gradient-6" x1="0.5" y1="0.999" x2="0.5" y2="-0.001" xlink:href="#linear-gradient"/>
  </defs>
  <g id="Group_1105" data-name="Group 1105" transform="translate(-542.6 -2598)">
    <g id="Group_823" data-name="Group 823" transform="translate(441 1797)">
      <g id="Group_815" data-name="Group 815" transform="translate(101.6 801)">
        <rect id="Rectangle_570" data-name="Rectangle 570" width="288.039" height="397.977" transform="translate(45.557 89.301) rotate(-12.11)" fill="#e0e0e0"/>
        <g id="Group_811" data-name="Group 811" transform="translate(51.732 36.473)" opacity="0.5">
          <rect id="Rectangle_571" data-name="Rectangle 571" width="278.304" height="384.524" transform="translate(0 58.385) rotate(-12.11)" fill="url(#linear-gradient)"/>
        </g>
        <path id="Path_330" data-name="Path 330" d="M0,0H271.219V376.029H0Z" transform="translate(55.786 96.883) rotate(-12.11)" fill="#fafafa"/>
        <rect id="Rectangle_573" data-name="Rectangle 573" width="134.548" height="32.592" transform="translate(119.528 66.534) rotate(-12.11)" fill="url(#linear-gradient-2)"/>
        <path id="Path_258" data-name="Path 258" d="M453.279,91.686a19.259,19.259,0,1,0,22.409,14.882A19.034,19.034,0,0,0,453.279,91.686Zm6.373,29.725a11.112,11.112,0,1,1,8.278-13.182,10.98,10.98,0,0,1-8.278,13.182Z" transform="translate(-274.658 -70.391)" fill="url(#linear-gradient-3)"/>
        <path id="Path_325" data-name="Path 325" d="M0,0H131.714V31.156H0Z" transform="translate(120.62 64.87) rotate(-12.11)" fill="#2eab82"/>
        <path id="Path_259" data-name="Path 259" d="M453.4,91.686a18.409,18.409,0,1,0,21.862,14.138A18.408,18.408,0,0,0,453.4,91.686Zm6.09,28.407a10.625,10.625,0,1,1,8.16-12.615,10.625,10.625,0,0,1-8.16,12.615Z" transform="translate(-274.783 -70.391)" fill="#2eab82"/>
        <rect id="Rectangle_575" data-name="Rectangle 575" width="288.038" height="397.975" transform="translate(169.974 77.055)" fill="#e0e0e0"/>
        <g id="Group_812" data-name="Group 812" transform="translate(174.845 83.784)" opacity="0.5">
          <rect id="Rectangle_576" data-name="Rectangle 576" width="278.303" height="384.523" fill="url(#linear-gradient-4)"/>
        </g>
        <g id="Group_833" data-name="Group 833">
          <rect id="Rectangle_609" data-name="Rectangle 609" width="229.502" height="9.198" transform="matrix(0.978, -0.208, 0.208, 0.978, 87.435, 161.627)" fill="#839092" opacity="0.1"/>
          <rect id="Rectangle_610" data-name="Rectangle 610" width="183.502" height="58.198" rx="7" transform="matrix(0.978, -0.208, 0.208, 0.978, 80.782, 130.327)" fill="#ced5d4"/>
          <rect id="Rectangle_613" data-name="Rectangle 613" width="183.502" height="63.198" rx="7" transform="matrix(0.978, -0.208, 0.208, 0.978, 130.742, 208.436)" fill="#ced5d4"/>
        </g>
        <g id="Group_835" data-name="Group 835" transform="translate(61 79)">
          <rect id="Rectangle_609-2" data-name="Rectangle 609" width="229.502" height="9.198" transform="matrix(0.978, -0.208, 0.208, 0.978, 87.435, 161.627)" fill="#839092" opacity="0.1"/>
          <rect id="Rectangle_610-2" data-name="Rectangle 610" width="118.502" height="9.198" transform="matrix(0.978, -0.208, 0.208, 0.978, 80.782, 130.327)" fill="#839092" opacity="0.1"/>
          <rect id="Rectangle_611" data-name="Rectangle 611" width="177.502" height="9.198" transform="matrix(0.978, -0.208, 0.208, 0.978, 90.723, 177.096)" fill="#839092" opacity="0.1"/>
          <rect id="Rectangle_612" data-name="Rectangle 612" width="229.502" height="9.198" transform="matrix(0.978, -0.208, 0.208, 0.978, 84.07, 145.796)" fill="#839092" opacity="0.1"/>
        </g>
        <rect id="Rectangle_577" data-name="Rectangle 577" width="271.218" height="376.027" transform="translate(178.384 86.618)" fill="#fff"/>
        <rect id="Rectangle_578" data-name="Rectangle 578" width="134.548" height="32.592" transform="translate(247.075 70.312)" fill="url(#linear-gradient-4)"/>
        <path id="Path_260" data-name="Path 260" d="M657.131,118a19.264,19.264,0,1,0,18.811,19.259A19.039,19.039,0,0,0,657.131,118Zm0,30.371a11.112,11.112,0,1,1,10.849-11.112,10.98,10.98,0,0,1-10.849,11.06Z" transform="translate(-342.782 -79.502)" fill="url(#linear-gradient-6)"/>
        <rect id="Rectangle_579" data-name="Rectangle 579" width="131.714" height="31.155" transform="translate(248.492 68.915)" fill="#fccd5d"/>
        <path id="Path_261" data-name="Path 261" d="M657.339,118a18.409,18.409,0,1,0,18.408,18.409A18.409,18.409,0,0,0,657.339,118Zm0,29.033a10.635,10.635,0,1,0,0-.033Z" transform="translate(-342.989 -79.502)" fill="#fccd5d"/>
        <g id="Group_813" data-name="Group 813" transform="translate(4.277 485.786)" opacity="0.5">
          <rect id="Rectangle_580" data-name="Rectangle 580" width="2.478" height="14.059" transform="translate(5.787)" fill="#47e6b1"/>
          <rect id="Rectangle_581" data-name="Rectangle 581" width="2.478" height="14.059" transform="translate(14.059 5.793) rotate(90)" fill="#47e6b1"/>
        </g>
        <g id="Group_814" data-name="Group 814" transform="translate(291.788)" opacity="0.5">
          <rect id="Rectangle_582" data-name="Rectangle 582" width="2.478" height="14.059" transform="translate(5.787)" fill="#47e6b1"/>
          <rect id="Rectangle_583" data-name="Rectangle 583" width="2.478" height="14.059" transform="translate(14.059 5.787) rotate(90)" fill="#47e6b1"/>
        </g>
        <path id="Path_262" data-name="Path 262" d="M955.747,829.242a3.038,3.038,0,0,1-1.694-3.671,1.467,1.467,0,0,0,.066-.336h0a1.523,1.523,0,0,0-2.735-1.009h0a1.465,1.465,0,0,0-.171.3,3.038,3.038,0,0,1-3.671,1.694,1.467,1.467,0,0,0-.336-.066h0a1.522,1.522,0,0,0-1.008,2.735h0a1.471,1.471,0,0,0,.3.171,3.038,3.038,0,0,1,1.694,3.671,1.46,1.46,0,0,0-.066.336h0a1.523,1.523,0,0,0,2.735,1.008h0a1.458,1.458,0,0,0,.171-.3,3.038,3.038,0,0,1,3.671-1.694,1.477,1.477,0,0,0,.336.066h0a1.522,1.522,0,0,0,1.008-2.735h0A1.458,1.458,0,0,0,955.747,829.242Z" transform="translate(-447.532 -320.052)" fill="#4d8af0" opacity="0.5"/>
        <path id="Path_263" data-name="Path 263" d="M321.337,624.182a3.038,3.038,0,0,1-1.694-3.671,1.463,1.463,0,0,0,.066-.336h0a1.522,1.522,0,0,0-2.735-1.008h0a1.468,1.468,0,0,0-.171.3,3.039,3.039,0,0,1-3.671,1.694,1.46,1.46,0,0,0-.336-.066h0a1.522,1.522,0,0,0-1.008,2.735h0a1.455,1.455,0,0,0,.3.171,3.038,3.038,0,0,1,1.694,3.671,1.462,1.462,0,0,0-.066.336h0a1.522,1.522,0,0,0,2.735,1.008h0a1.463,1.463,0,0,0,.171-.3,3.039,3.039,0,0,1,3.671-1.694,1.468,1.468,0,0,0,.336.066h0a1.522,1.522,0,0,0,1.008-2.735h0A1.465,1.465,0,0,0,321.337,624.182Z" transform="translate(-231.258 -250.146)" fill="#fdd835" opacity="0.5"/>
        <path id="Path_264" data-name="Path 264" d="M849.747,124.862a3.038,3.038,0,0,1-1.694-3.671,1.467,1.467,0,0,0,.066-.336h0a1.522,1.522,0,0,0-2.735-1.008h0a1.471,1.471,0,0,0-.171.3,3.038,3.038,0,0,1-3.671,1.694,1.462,1.462,0,0,0-.336-.066h0a1.522,1.522,0,0,0-1.008,2.735h0a1.458,1.458,0,0,0,.3.171,3.038,3.038,0,0,1,1.694,3.671,1.461,1.461,0,0,0-.066.336h0a1.522,1.522,0,0,0,2.735,1.008h0a1.472,1.472,0,0,0,.171-.3A3.038,3.038,0,0,1,848.7,127.7a1.464,1.464,0,0,0,.336.066h0a1.523,1.523,0,0,0,1.008-2.735h0a1.462,1.462,0,0,0-.3-.171Z" transform="translate(-411.396 -79.925)" fill="#fdd835" opacity="0.5"/>
        <circle id="Ellipse_10" data-name="Ellipse 10" cx="4.963" cy="4.963" r="4.963" transform="translate(530.644 202.303)" fill="#f55f44" opacity="0.5"/>
        <circle id="Ellipse_11" data-name="Ellipse 11" cx="4.963" cy="4.963" r="4.963" transform="translate(147.11 487.151)" fill="#f55f44" opacity="0.5"/>
        <circle id="Ellipse_12" data-name="Ellipse 12" cx="4.963" cy="4.963" r="4.963" transform="translate(479.677 309.577)" fill="#f55f44" opacity="0.5"/>
        <circle id="Ellipse_13" data-name="Ellipse 13" cx="4.963" cy="4.963" r="4.963" transform="translate(52.471 58.541)" fill="#4d8af0" opacity="0.5"/>
        <circle id="Ellipse_14" data-name="Ellipse 14" cx="4.963" cy="4.963" r="4.963" transform="translate(0 193.926)" fill="#47e6b1" opacity="0.5"/>
      </g>
    </g>
    <g id="Group_824" data-name="Group 824" transform="translate(429 1745)" opacity="0.295">
      <path id="bell" d="M58.845,134.5A16.81,16.81,0,0,0,75.65,117.691H42.04A16.81,16.81,0,0,0,58.845,134.5Zm56.583-39.329c-5.075-5.454-14.572-13.658-14.572-40.532,0-20.412-14.312-36.752-33.61-40.761V8.406a8.4,8.4,0,1,0-16.8,0v5.475c-19.3,4.009-33.61,20.349-33.61,40.761,0,26.874-9.5,35.079-14.572,40.532A8.208,8.208,0,0,0,0,100.878a8.414,8.414,0,0,0,8.433,8.406H109.257a8.412,8.412,0,0,0,8.433-8.406A8.2,8.2,0,0,0,115.428,95.174Z" transform="matrix(0.921, -0.391, 0.391, 0.921, 327.046, 1046.908)" fill="#647577"/>
      <path id="rss" d="M15.933,79.763A7.966,7.966,0,1,1,7.967,71.8,7.967,7.967,0,0,1,15.933,79.763Zm21.852,5.878a37.826,37.826,0,0,0-35.7-35.7A1.989,1.989,0,0,0,0,51.935v5.98a1.991,1.991,0,0,0,1.852,1.993A27.874,27.874,0,0,1,27.823,85.878a1.992,1.992,0,0,0,1.993,1.852h5.98A1.988,1.988,0,0,0,37.785,85.641Zm17.944.036A55.768,55.768,0,0,0,2.053,32,1.989,1.989,0,0,0,0,33.992v5.98a2,2,0,0,0,1.922,1.99A45.786,45.786,0,0,1,45.768,85.808a2,2,0,0,0,1.99,1.922h5.98A1.989,1.989,0,0,0,55.729,85.677Z" transform="translate(509.314 1156.082) rotate(108)" fill="#647577"/>
    </g>
  </g>
</svg>
